/* XPM */
static char * battery2_xpm[] = {
"16 16 92 2",
"  	c None",
". 	c #1F1D1A",
"+ 	c #48351C",
"@ 	c #78531E",
"# 	c #8C5F1F",
"$ 	c #9C9487",
"% 	c #87765F",
"& 	c #81581E",
"* 	c #5F431C",
"= 	c #2C241A",
"- 	c #68491E",
"; 	c #DC9024",
"> 	c #DE9125",
", 	c #BB7C23",
"' 	c #A7957B",
") 	c #907652",
"! 	c #C48022",
"~ 	c #D28925",
"{ 	c #A66C1F",
"] 	c #191919",
"^ 	c #6C4816",
"/ 	c #D8891B",
"( 	c #E59F3D",
"_ 	c #DF9E44",
": 	c #D4933B",
"< 	c #D08620",
"[ 	c #D3871F",
"} 	c #CA801B",
"| 	c #945D12",
"1 	c #171717",
"2 	c #6B4614",
"3 	c #D58517",
"4 	c #E8AA56",
"5 	c #E9B875",
"6 	c #AA8A5F",
"7 	c #C47C19",
"8 	c #D38215",
"9 	c #C47913",
"0 	c #8F590F",
"a 	c #D68517",
"b 	c #E7A851",
"c 	c #E8B56F",
"d 	c #DDA65A",
"e 	c #D78618",
"f 	c #8E590F",
"g 	c #674415",
"h 	c #D58516",
"i 	c #E6A54C",
"j 	c #E7B268",
"k 	c #E1A654",
"l 	c #8D570F",
"m 	c #332819",
"n 	c #79521D",
"o 	c #C39049",
"p 	c #DDA85F",
"q 	c #DFA14D",
"r 	c #D28318",
"s 	c #BA7417",
"t 	c #885817",
"u 	c #422F16",
"v 	c #161616",
"w 	c #29231A",
"x 	c #242424",
"y 	c #4C4C4C",
"z 	c #5F5F5F",
"A 	c #505050",
"B 	c #222222",
"C 	c #1E1E1E",
"D 	c #241F18",
"E 	c #221F1A",
"F 	c #464646",
"G 	c #565656",
"H 	c #494949",
"I 	c #1E1B17",
"J 	c #1B1B1B",
"K 	c #232323",
"L 	c #414141",
"M 	c #4F4F4F",
"N 	c #444444",
"O 	c #151515",
"P 	c #3E3E3E",
"Q 	c #4A4A4A",
"R 	c #404040",
"S 	c #3C3C3C",
"T 	c #474747",
"U 	c #1A1A1A",
"V 	c #313131",
"W 	c #393939",
"X 	c #202020",
"Y 	c #1C1C1C",
"Z 	c #141414",
"` 	c #181818",
"                                ",
"      . + @ # $ % & * =         ",
"      - ; > , ' ) ! ~ { ]       ",
"      ^ / ( _ : < [ } | 1       ",
"      2 3 4 5 6 7 8 9 0 1       ",
"      2 a b c d e 8 9 f 1       ",
"      g h i j k e 8 9 l 1       ",
"      m n o p q r s t u v       ",
"      w x y z A x B C D v       ",
"      E x F G H x B C I v       ",
"      J K L M N K B C 1 O       ",
"      J K P Q R K B C 1 O       ",
"      ] B S T P K B C v 1       ",
"      1 U V R W X Y 1 Z ]       ",
"        ] ` ] 1 O v 1 ]         ",
"                                "};
