/* XPM */
static char * battery_xpm[] = {
"16 16 43 1",
" 	c None",
".	c #383838",
"+	c #EAEAEA",
"@	c #FFFFFF",
"#	c #F6F6F6",
"$	c #373737",
"%	c #4B4B4B",
"&	c #696969",
"*	c #C3C3C3",
"=	c #BBBBBB",
"-	c #858585",
";	c #505050",
">	c #5C5C5C",
",	c #E5E5E5",
"'	c #F3F3F3",
")	c #F8F8F8",
"!	c #E3E3E3",
"~	c #FDFDFD",
"{	c #818181",
"]	c #6A6A6A",
"^	c #D1D1D1",
"/	c #A6A6A6",
"(	c #939393",
"_	c #C9C9C9",
":	c #D3D3D3",
"<	c #E0E0E0",
"[	c #AEAEAE",
"}	c #A0A0A0",
"|	c #909090",
"1	c #EDEDED",
"2	c #2E2E2E",
"3	c #A1A1A1",
"4	c #FEFEFE",
"5	c #878787",
"6	c #FCFCFC",
"7	c #626262",
"8	c #787878",
"9	c #7A7A7A",
"0	c #D4D4D4",
"a	c #AAAAAA",
"b	c #525252",
"c	c #747474",
"d	c #323232",
"                ",
"       ..       ",
"      +@@#$     ",
"    %&@*=@-;    ",
"   >@,'))#!~{   ",
"   ]^      /(   ",
"   ]_  :<[ }(   ",
"   ]_ |@12 }(   ",
"   ]_ 3@45 }(   ",
"   ]_  *67 }(   ",
"   ]_  :8  }(   ",
"   ]_  9   }(   ",
"   ]0      a(   ",
"   b~@@@@@@@c   ",
"    2......d    ",
"                "};
