/* XPM */
static char * battery2_xpm[] = {
"16 16 43 1",
" 	c None",
".	c #525252",
"+	c #6A6A6A",
"@	c #5C5C5C",
"#	c #2E2E2E",
"$	c #FDFDFD",
"%	c #D4D4D4",
"&	c #C9C9C9",
"*	c #D1D1D1",
"=	c #FFFFFF",
"-	c #4B4B4B",
";	c #383838",
">	c #E5E5E5",
",	c #696969",
"'	c #A1A1A1",
")	c #909090",
"!	c #F3F3F3",
"~	c #EAEAEA",
"{	c #7A7A7A",
"]	c #D3D3D3",
"^	c #C3C3C3",
"/	c #F8F8F8",
"(	c #787878",
"_	c #FCFCFC",
":	c #FEFEFE",
"<	c #EDEDED",
"[	c #E0E0E0",
"}	c #BBBBBB",
"|	c #626262",
"1	c #878787",
"2	c #AEAEAE",
"3	c #F6F6F6",
"4	c #E3E3E3",
"5	c #858585",
"6	c #373737",
"7	c #323232",
"8	c #AAAAAA",
"9	c #A0A0A0",
"0	c #A6A6A6",
"a	c #505050",
"b	c #747474",
"c	c #939393",
"d	c #818181",
"                ",
"                ",
"                ",
"  .++++++++@    ",
" #$%&&&&&&*=-   ",
" ;=        >,   ",
" ;=    ')  !=~  ",
" ;= {]^==] /^=; ",
" ;=  (_:<[ /}=; ",
" ;=   |1#2 3=3  ",
" ;=        456  ",
" 7=89999990$a   ",
"  bccccccccd    ",
"                ",
"                ",
"                "};
