/* XPM */
static char * emblem_urgent_xpm[] = {
"16 16 25 1",
" 	c None",
".	c #696969",
"+	c #AFAFAF",
"@	c #CFCFCF",
"#	c #414141",
"$	c #D8D8D8",
"%	c #FCFCFC",
"&	c #C7C7C7",
"*	c #9D9D9D",
"=	c #424242",
"-	c #F1F1F1",
";	c #CECECE",
">	c #3F3F3F",
",	c #ACACAC",
"'	c #E4E4E4",
")	c #686868",
"!	c #FDFDFD",
"~	c #C8C8C8",
"{	c #D0D0D0",
"]	c #EFEFEF",
"^	c #F3F3F3",
"/	c #C0C0C0",
"(	c #FFFFFF",
"_	c #BDBDBD",
":	c #ADADAD",
"                ",
"     .+@@+.     ",
"   #$%&**&%$#   ",
"  =-;> ,, >;-=  ",
"  $;   ''   ;$  ",
" )!>   ''   >!) ",
" +~    ''    ~+ ",
" {*    ]^    *{ ",
" {*    /(_   *{ ",
" +~     _(:  ~+ ",
" )!>     :: >!) ",
"  $;        ;$  ",
"  =-;>    >;-=  ",
"   #$%&**&%$#   ",
"     .+@@+.     ",
"                "};
