/* XPM */
static char * cogs_xpm[] = {
"16 16 79 1",
" 	c None",
".	c #1A1A1A",
"+	c #404040",
"@	c #848484",
"#	c #1F1F1F",
"$	c #DDDDDD",
"%	c #464646",
"&	c #4A4A4A",
"*	c #FFFFFF",
"=	c #FCFCFC",
"-	c #8C8C8C",
";	c #7E7E7E",
">	c #969696",
",	c #D1D1D1",
"'	c #FEFEFE",
")	c #DBDBDB",
"!	c #313131",
"~	c #6A6A6A",
"{	c #F6F6F6",
"]	c #606060",
"^	c #A8A8A8",
"/	c #A6A6A6",
"(	c #323232",
"_	c #EBEBEB",
":	c #F3F3F3",
"<	c #7C7C7C",
"[	c #727272",
"}	c #B9B9B9",
"|	c #F1F1F1",
"1	c #E4E4E4",
"2	c #2A2A2A",
"3	c #959595",
"4	c #393939",
"5	c #858585",
"6	c #A0A0A0",
"7	c #989898",
"8	c #CACACA",
"9	c #7A7A7A",
"0	c #212121",
"a	c #C4C4C4",
"b	c #D7D7D7",
"c	c #676767",
"d	c #4F4F4F",
"e	c #363636",
"f	c #3C3C3C",
"g	c #B5B5B5",
"h	c #FDFDFD",
"i	c #757575",
"j	c #4C4C4C",
"k	c #BCBCBC",
"l	c #1C1C1C",
"m	c #3A3A3A",
"n	c #383838",
"o	c #BDBDBD",
"p	c #494949",
"q	c #2B2B2B",
"r	c #747474",
"s	c #D0D0D0",
"t	c #9B9B9B",
"u	c #CFCFCF",
"v	c #E7E7E7",
"w	c #C7C7C7",
"x	c #E1E1E1",
"y	c #232323",
"z	c #C9C9C9",
"A	c #C6C6C6",
"B	c #6D6D6D",
"C	c #3D3D3D",
"D	c #F5F5F5",
"E	c #B8B8B8",
"F	c #CCCCCC",
"G	c #C3C3C3",
"H	c #787878",
"I	c #6E6E6E",
"J	c #656565",
"K	c #515151",
"L	c #535353",
"M	c #EDEDED",
"N	c #424242",
"                ",
" .+@#$%         ",
" .&*=*-;        ",
" >,*''*)!       ",
" ~{*]^*/        ",
" (_*,:**<       ",
" [}|**123456    ",
"   78910a=*bcd  ",
"   ef.dg=*h*hi  ",
"  jklmno*ap'=q  ",
" 4r*s'%t*{u**v  ",
" _*wx)yzA***B   ",
" CDEF*G  *HwI   ",
" J*{*;K  L      ",
" 0]nMN          ",
"                "};
