/* XPM */
static char * drive_harddisk_xpm[] = {
"16 16 20 1",
" 	c None",
".	c #575757",
"+	c #CECECE",
"@	c #EAEAEA",
"#	c #DDDDDD",
"$	c #E4E4E4",
"%	c #939393",
"&	c #8C8C8C",
"*	c #FFFFFF",
"=	c #828282",
"-	c #777777",
";	c #6E6E6E",
">	c #B0B0B0",
",	c #929292",
"'	c #E9E9E9",
")	c #3D3D3D",
"!	c #484848",
"~	c #7E7E7E",
"{	c #616161",
"]	c #1A1A1A",
"                ",
"                ",
"                ",
" .+@@@@@@@@@@+. ",
" #$%&&&&&&&&%$# ",
" *=          =* ",
" *-          -* ",
" *-          -* ",
" *-      ;>, -* ",
" *-      '**)-* ",
" *=      !~{]=* ",
" #$%&&&&&&&&%$# ",
" .+@@@@@@@@@@+. ",
"                ",
"                ",
"                "};
