/* XPM */
static char * network_wired_xpm[] = {
"16 16 10 1",
" 	c None",
".	c #E9E9E9",
"+	c #FFFFFF",
"@	c #E7E7E7",
"#	c #686868",
"$	c #C9C9C9",
"%	c #D1D1D1",
"&	c #F4F4F4",
"*	c #EFEFEF",
"=	c #5B5B5B",
"                ",
" .++++++++++++@ ",
" +#          #+ ",
" +            + ",
" +    $++$    + ",
" +    $++$    + ",
" +  %%&++&%%  + ",
" +  ++++++++  + ",
" +  ++++++++  + ",
" +  ++++++++  + ",
" +  ++++++++  + ",
" +  ********  + ",
" +            + ",
" +=          =+ ",
" @++++++++++++@ ",
"                "};
