/* XPM */
static char * utilities_system_monitor_xpm[] = {
"16 16 49 1",
" 	c None",
".	c #2F2F2F",
"+	c #383838",
"@	c #9E9E9E",
"#	c #FFFFFF",
"$	c #F9F9F9",
"%	c #C4C4C4",
"&	c #4E4E4E",
"*	c #474747",
"=	c #535353",
"-	c #AFAFAF",
";	c #5E5E5E",
">	c #6D6D6D",
",	c #8E8E8E",
"'	c #C7C7C7",
")	c #6A6A6A",
"!	c #B9B9B9",
"~	c #F6F6F6",
"{	c #606060",
"]	c #616161",
"^	c #8B8B8B",
"/	c #FBFBFB",
"(	c #B2B2B2",
"_	c #6F6F6F",
":	c #545454",
"<	c #575757",
"[	c #505050",
"}	c #A7A7A7",
"|	c #FEFEFE",
"1	c #313131",
"2	c #BDBDBD",
"3	c #626262",
"4	c #ACACAC",
"5	c #A6A6A6",
"6	c #EBEBEB",
"7	c #CECECE",
"8	c #828282",
"9	c #727272",
"0	c #646464",
"a	c #666666",
"b	c #898989",
"c	c #5B5B5B",
"d	c #6E6E6E",
"e	c #424242",
"f	c #595959",
"g	c #818181",
"h	c #ABABAB",
"i	c #999999",
"j	c #2D2D2D",
"                ",
"  .++++++++++.  ",
" @############@ ",
" $%&****=-;*&%$ ",
" #>     ,#'  ># ",
" #)     !#~  )# ",
" #)     ~##{ )# ",
" #)    ]#^/( )# ",
" #_:<[ }|12#3_# ",
" #4###567 8##4# ",
" #90a6##b  c09# ",
" #d  .##e    d# ",
" $'f<<gh<<<<f'$ ",
" i############i ",
"  j++++++++++j  ",
"                "};
