/* XPM */
static char * network_idle_xpm[] = {
"16 16 31 1",
" 	c None",
".	c #8D8D8D",
"+	c #F9F9F9",
"@	c #FFFFFF",
"#	c #F0F0F0",
"$	c #6A6A6A",
"%	c #7B7B7B",
"&	c #A4A4A4",
"*	c #CECECE",
"=	c #D6D6D6",
"-	c #EAEAEA",
";	c #A8A8A8",
">	c #535353",
",	c #D4D4D4",
"'	c #B8B8B8",
")	c #F4F4F4",
"!	c #ECECEC",
"~	c #B0B0B0",
"{	c #5F5F5F",
"]	c #C8C8C8",
"^	c #2F2F2F",
"/	c #C6C6C6",
"(	c #FAFAFA",
"_	c #F1F1F1",
":	c #FCFCFC",
"<	c #A5A5A5",
"[	c #DADADA",
"}	c #919191",
"|	c #666666",
"1	c #DBDBDB",
"2	c #D5D5D5",
"                ",
" .+@@@@@@#$     ",
" +%      &*     ",
" @ =----;>,     ",
" @ -@@@@'>,     ",
" @ -@@)!~{]^^   ",
" @ -@/(______:< ",
" @ -@[}      |: ",
" :|  ,>'@@@@- @ ",
" <:__1>'@@@@- @ ",
"   ^^2>'@@@@- @ ",
"     ,>'@@@@- @ ",
"     ,>;----= @ ",
"     *&      %+ ",
"     $#@@@@@@+. ",
"                "};
