/* XPM */
static char * network_online_xpm[] = {
"16 16 28 1",
" 	c None",
".	c #737373",
"+	c #999999",
"@	c #636363",
"#	c #8C8C8C",
"$	c #2E2E2E",
"%	c #B1B1B1",
"&	c #FFFFFF",
"*	c #CCCCCC",
"=	c #F6F6F6",
"-	c #FDFDFD",
";	c #D3D3D3",
">	c #9E9E9E",
",	c #E5E5E5",
"'	c #F4F4F4",
")	c #FBFBFB",
"!	c #F5F5F5",
"~	c #EEEEEE",
"{	c #A9A9A9",
"]	c #7F7F7F",
"^	c #D5D5D5",
"/	c #FEFEFE",
"(	c #A0A0A0",
"_	c #B8B8B8",
":	c #F9F9F9",
"<	c #777777",
"[	c #929292",
"}	c #353535",
"                ",
"                ",
"                ",
"     .+@ +#$    ",
"    %&&* &&=    ",
"    -&&* &&&+   ",
"   .&&&* &&&;   ",
" >,'&&&* &&&),> ",
" >,!&&&* &&&-~{ ",
"   ]&&&* &&&^   ",
"    /&&* &&&(   ",
"    _&&* &&:    ",
"     <+@ +[}    ",
"                ",
"                ",
"                "};
