/* XPM */
static char * pacman_xpm[] = {
"16 16 58 1",
" 	c None",
".	c #0C0B03",
"+	c #0D0B03",
"@	c #6B6020",
"#	c #C7B136",
"$	c #E0C842",
"%	c #CBBA5F",
"&	c #BBA636",
"*	c #6C5F1B",
"=	c #978F51",
"-	c #FEFAAE",
";	c #FBF7AC",
">	c #D9D5BF",
",	c #A7A7A7",
"'	c #D5CC9A",
")	c #FCDF3E",
"!	c #978525",
"~	c #6C6120",
"{	c #FDFAAE",
"]	c #FFFFC0",
"^	c #FCFCBE",
"/	c #D6D6C7",
"(	c #BDBDBD",
"_	c #D5CA90",
":	c #FEE03F",
"<	c #FCDE3E",
"[	c #574C15",
"}	c #C8B236",
"|	c #FFFBAF",
"1	c #F2EFAA",
"2	c #DAC44F",
"3	c #EED23D",
"4	c #B39E2C",
"5	c #685C1A",
"6	c #0C0A03",
"7	c #F4D73C",
"8	c #FFEB68",
"9	c #FFFCB3",
"0	c #FFFCB4",
"a	c #EFDC65",
"b	c #8F7E23",
"c	c #4A4112",
"d	c #FFE13F",
"e	c #F1D53C",
"f	c #7C6E1F",
"g	c #CCB432",
"h	c #FEE13F",
"i	c #C8B131",
"j	c #4F4614",
"k	c #6C601B",
"l	c #FDE03F",
"m	c #F9DC3E",
"n	c #958425",
"o	c #6A5E1A",
"p	c #C7AF31",
"q	c #F4D83C",
"r	c #C9B232",
"s	c #0D0C03",
"                ",
"                ",
"       .+       ",
"     @#$%&*     ",
"    =-;>,')!    ",
"   ~{]^/(_:<[   ",
"   }|]]12345    ",
"  67890abc      ",
"  +7dddef       ",
"   gddddhij     ",
"   kldddddmn    ",
"    !lddddl!    ",
"     op7qr*     ",
"       .s       ",
"                ",
"                "};
