/* XPM */
static char * gpm_ac_adapter_xpm[] = {
"16 16 18 1",
" 	c None",
".	c #4E4E4E",
"+	c #666666",
"@	c #545454",
"#	c #B3B3B3",
"$	c #FFFFFF",
"%	c #C9C9C9",
"&	c #6C6C6C",
"*	c #BBBBBB",
"=	c #C3C3C3",
"-	c #D0D0D0",
";	c #383838",
">	c #B2B2B2",
",	c #F8F8F8",
"'	c #FCFCFC",
")	c #CFCFCF",
"!	c #767676",
"~	c #505050",
"                ",
"                ",
"                ",
"       .++@     ",
"      #$$$%     ",
"     &$$$$$$$*  ",
"     =$$$$-;;   ",
"  >>>,$$$$%     ",
"  >>>'$$$$%     ",
"     )$$$$-;;   ",
"     !$$$$$$$*  ",
"      *$$$%     ",
"       ~++@     ",
"                ",
"                ",
"                "};
