/* XPM */
static char * temp2_xpm[] = {
"14 14 41 1",
" 	c None",
".	c #373737",
"+	c #B1B1B1",
"@	c #949494",
"#	c #2D2D2D",
"$	c #383838",
"%	c #A1A1A1",
"&	c #5F5F5F",
"*	c #A3A3A3",
"=	c #545454",
"-	c #848484",
";	c #525252",
">	c #A5A5A5",
",	c #4D4D4D",
"'	c #5D5D5D",
")	c #4B4B4B",
"!	c #474747",
"~	c #323232",
"{	c #555555",
"]	c #757575",
"^	c #4A4A4A",
"/	c #AAAAAA",
"(	c #5C5C5C",
"_	c #AEAEAE",
":	c #BEBEBE",
"<	c #DFDFDF",
"[	c #414141",
"}	c #575757",
"|	c #3A3A3A",
"1	c #FFFFFF",
"2	c #C3C3C3",
"3	c #727272",
"4	c #5B5B5B",
"5	c #F1F1F1",
"6	c #B8B8B8",
"7	c #787878",
"8	c #797979",
"9	c #FEFEFE",
"0	c #ECECEC",
"a	c #A9A9A9",
"b	c #9E9E9E",
"    .+@  #$$  ",
"    %&*= &--; ",
"    > ,'      ",
"    * )' .!!~ ",
"    * )' {]]^ ",
"    / ('      ",
"    _:<' [}}| ",
"    _11' [}}| ",
"    2113      ",
"   41115#     ",
"   611117     ",
"   611118     ",
"   49110#     ",
"    }ab.      "};
