/* XPM */
static char * temp_xpm[] = {
"14 14 22 1",
" 	c None",
".	c #A5A5A5",
"+	c #7A7A7A",
"@	c #818181",
"#	c #858585",
"$	c #313131",
"%	c #CDCDCD",
"&	c #FFFFFF",
"*	c #9B9B9B",
"=	c #9E9E9E",
"-	c #3D3D3D",
";	c #FAFAFA",
">	c #FCFCFC",
",	c #454545",
"'	c #929292",
")	c #939393",
"!	c #F6F6F6",
"~	c #474747",
"{	c #444444",
"]	c #A3A3A3",
"^	c #A6A6A6",
"/	c #4A4A4A",
"      ..      ",
"     +@@+     ",
"     #  #     ",
"     #  #     ",
"     #  #     ",
"     #$$#     ",
"     #%%#     ",
"     #&&#     ",
"     *&&=     ",
"    -;&&>,    ",
"    '&&&&=    ",
"    )&&&&=    ",
"    -!&&;~    ",
"     {]^/     "};
