/* XPM */
static char * nm_signal_100_xpm[] = {
"16 16 35 1",
" 	c None",
".	c #4D4D4D",
"+	c #636363",
"@	c #414141",
"#	c #B1B1B1",
"$	c #F5F5F5",
"%	c #FFFFFF",
"&	c #FEFEFE",
"*	c #949494",
"=	c #FDFDFD",
"-	c #CFCFCF",
";	c #757575",
">	c #353535",
",	c #1D1D1D",
"'	c #616161",
")	c #F7F7F7",
"!	c #717171",
"~	c #1A1A1A",
"{	c #464646",
"]	c #8F8F8F",
"^	c #AFAFAF",
"/	c #303030",
"(	c #B4B4B4",
"_	c #E0E0E0",
":	c #B5B5B5",
"<	c #737373",
"[	c #E3E3E3",
"}	c #595959",
"|	c #373737",
"1	c #BBBBBB",
"2	c #FBFBFB",
"3	c #7C7C7C",
"4	c #D0D0D0",
"5	c #4C4C4C",
"6	c #838383",
"                ",
"                ",
"                ",
"      .++.      ",
"   @#$%&&%$#@   ",
"  *=-;>,,>;-=*  ",
" ')!~{]^^]{~!)' ",
"  / (%_::_%( /  ",
"   <[}~~~~}[<   ",
"     |1221|     ",
"     34<<43     ",
"       55       ",
"       66       ",
"                ",
"                ",
"                "};
