/* XPM */
static char * network_wireless_xpm[] = {
"16 16 47 1",
" 	c None",
".	c #727272",
"+	c #A2A2A2",
"@	c #323232",
"#	c #F6F6F6",
"$	c #A3A3A3",
"%	c #959595",
"&	c #EDEDED",
"*	c #262626",
"=	c #747474",
"-	c #D6D6D6",
";	c #A6A6A6",
">	c #1C1C1C",
",	c #EBEBEB",
"'	c #AEAEAE",
")	c #686868",
"!	c #F4F4F4",
"~	c #7F7F7F",
"{	c #3C3C3C",
"]	c #FFFFFF",
"^	c #5B5B5B",
"/	c #EEEEEE",
"(	c #848484",
"_	c #373737",
":	c #636363",
"<	c #4A4A4A",
"[	c #FEFEFE",
"}	c #CCCCCC",
"|	c #B2B2B2",
"1	c #1A1A1A",
"2	c #DCDCDC",
"3	c #C5C5C5",
"4	c #AFAFAF",
"5	c #838383",
"6	c #333333",
"7	c #575757",
"8	c #787878",
"9	c #A0A0A0",
"0	c #E9E9E9",
"a	c #C1C1C1",
"b	c #535353",
"c	c #949494",
"d	c #939393",
"e	c #C3C3C3",
"f	c #E0E0E0",
"g	c #E5E5E5",
"h	c #E6E6E6",
"                ",
"  .+        +.  ",
" @#$        $#@ ",
" %&*=+    +=*&% ",
" -;>,' )) ',>;- ",
" !~{]^^]]^^]{~! ",
" /(_]:<[[<:]_(/ ",
" }|123 44 321|} ",
" 5#678 99 876#5 ",
"  0a   99   a0  ",
"  b8   c9   8b  ",
"       d9       ",
"       d'       ",
" 7777774e777777 ",
" ffffffghffffff ",
"                "};
